<?xml version="1.0" encoding="UTF-8" standalone="no" ?>
<!DOCTYPE svg PUBLIC "-//W3C//DTD SVG 1.1//EN" "http://www.w3.org/Graphics/SVG/1.1/DTD/svg11.dtd">
<svg xmlns="http://www.w3.org/2000/svg" xmlns:xlink="http://www.w3.org/1999/xlink" version="1.1" viewBox="100 80 400 200" xml:space="preserve">

<defs>
</defs>
<g transform="matrix(0.24 0 0 0.24 299.66 196)" id="图层_1-2"  >
<linearGradient id="SVGID_未命名的渐变_12_1" gradientUnits="userSpaceOnUse" gradientTransform="matrix(1 0 0 -1 0 744.48)"  x1="8.66" y1="414.9" x2="590.67" y2="414.9">
<stop offset="0%" style="stop-color:rgb(28,138,200);stop-opacity: 1"/>
<stop offset="100%" style="stop-color:rgb(17,56,127);stop-opacity: 1"/>
</linearGradient>
<path style="stroke: none; stroke-width: 1; stroke-dasharray: none; stroke-linecap: butt; stroke-dashoffset: 0; stroke-linejoin: miter; stroke-miterlimit: 4; fill: url(#SVGID_未命名的渐变_12_1); fill-rule: nonzero; opacity: 1;"  transform=" translate(-311.07, -329.58)" d="M 80.45 335.8 L 0.15 335.8 C 0.15 331.40000000000003 -0.25 327.3 0.25 323.3 C 3.25 297.8 8.65 273 19.95 249.70000000000002 C 45.849999999999994 196.10000000000002 86.15 157.5 141.75 136.3 C 182.71102952401435 120.38665656977996 227.582143187682 117.48836673780764 270.25 128 C 321.05 140.1 361.85 167.3 393.65 208.3 C 403.54999999999995 221 411.95 235 421.04999999999995 248.3 C 422.34999999999997 250.20000000000002 423.84999999999997 252 425.94999999999993 254.8 C 459.44999999999993 201.3 492.3499999999999 148.60000000000002 525.2499999999999 96 L 622.1499999999999 96 C 619.2499999999999 101.5 616.9499999999998 106.3 614.1499999999999 110.8 Q 567.3499999999999 186.7 520.4499999999998 262.6 C 503.4499999999998 290.1 486.4499999999998 317.70000000000005 469.24999999999983 345 C 465.84999999999985 350.4 464.74999999999983 355.7 464.84999999999985 362 Q 466.1999999999999 457.25 467.34999999999985 552.5 L 467.34999999999985 562.5 C 457.4499999999999 564.5 448.64999999999986 561.5 440.14999999999986 558.9 C 404.84999999999985 547.9 381.4499999999999 515.1999999999999 381.2499999999999 477 Q 380.9499999999999 406.5 381.3499999999999 335.9 C 381.3499999999999 329.9 380.0499999999999 324.9 376.3499999999999 320 C 361.44999999999993 300.2 347.3499999999999 279.8 332.1499999999999 260.2 C 309.94999999999993 231.39999999999998 280.94999999999993 212.89999999999998 245.04999999999993 205.89999999999998 C 195.8499999999999 196.29999999999998 155.14999999999992 213.09999999999997 120.64999999999992 247.29999999999998 C 101.20449193171298 266.5313133786233 88.07263397837332 291.2254845100031 83.00000000000001 318.1 C 81.85 323.8 81.35 329.4 80.45 335.8 Z" stroke-linecap="round" />
</g>
<g transform="matrix(0.24 0 0 0.24 325.45 146.31)" id="图层_1-2"  >
<linearGradient id="SVGID_未命名的渐变_12-2_2" gradientUnits="userSpaceOnUse" gradientTransform="matrix(1 0 0 -1 0 744.48)"  x1="8.66" y1="621.93" x2="590.67" y2="621.93">
<stop offset="0%" style="stop-color:rgb(28,138,200);stop-opacity: 1"/>
<stop offset="100%" style="stop-color:rgb(17,56,127);stop-opacity: 1"/>
</linearGradient>
<path style="stroke: none; stroke-width: 1; stroke-dasharray: none; stroke-linecap: butt; stroke-dashoffset: 0; stroke-linejoin: miter; stroke-miterlimit: 4; fill: url(#SVGID_未命名的渐变_12-2_2); fill-rule: nonzero; opacity: 1;"  transform=" translate(-418.55, -122.55)" d="M 396.35 144.7 L 396.35 100.4 L 440.75 100.4 L 440.75 144.7 Z" stroke-linecap="round" />
</g>
<g transform="matrix(0.24 0 0 0.24 310.58 127.71)" id="图层_1-2"  >
<linearGradient id="SVGID_未命名的渐变_12-3_3" gradientUnits="userSpaceOnUse" gradientTransform="matrix(1 0 0 -1 0 744.48)"  x1="8.66" y1="699.43" x2="590.67" y2="699.43">
<stop offset="0%" style="stop-color:rgb(28,138,200);stop-opacity: 1"/>
<stop offset="100%" style="stop-color:rgb(17,56,127);stop-opacity: 1"/>
</linearGradient>
<path style="stroke: none; stroke-width: 1; stroke-dasharray: none; stroke-linecap: butt; stroke-dashoffset: 0; stroke-linejoin: miter; stroke-miterlimit: 4; fill: url(#SVGID_未命名的渐变_12-3_3); fill-rule: nonzero; opacity: 1;"  transform=" translate(-356.57, -45.05)" d="M 337.25 26.3 L 374 26.3 C 374.6 39.1 375.2 51.1 375.9 63.8 L 337.4 63.8 C 337.25 51.3 337.25 39.3 337.25 26.3 Z" stroke-linecap="round" />
</g>
<g transform="matrix(0.24 0 0 0.24 327.68 120.04)" id="图层_1-2"  >
<linearGradient id="SVGID_未命名的渐变_12-4_4" gradientUnits="userSpaceOnUse" gradientTransform="matrix(1 0 0 -1 0 744.48)"  x1="8.66" y1="731.38" x2="590.67" y2="731.38">
<stop offset="0%" style="stop-color:rgb(28,138,200);stop-opacity: 1"/>
<stop offset="100%" style="stop-color:rgb(17,56,127);stop-opacity: 1"/>
</linearGradient>
<path style="stroke: none; stroke-width: 1; stroke-dasharray: none; stroke-linecap: butt; stroke-dashoffset: 0; stroke-linejoin: miter; stroke-miterlimit: 4; fill: url(#SVGID_未命名的渐变_12-4_4); fill-rule: nonzero; opacity: 1;"  transform=" translate(-427.85, -13.1)" d="M 415 0 L 440.7 0 L 440.7 26.2 L 415 26.2 Z" stroke-linecap="round" />
</g>
<g transform="matrix(0.24 0 0 0.24 292.58 232.05)" id="图层_1-2"  >
<linearGradient id="SVGID_未命名的渐变_12-5_5" gradientUnits="userSpaceOnUse" gradientTransform="matrix(1 0 0 -1 0 744.48)"  x1="230.85" y1="212.08" x2="361.54" y2="344.51">
<stop offset="0%" style="stop-color:rgb(28,138,200);stop-opacity: 1"/>
<stop offset="100%" style="stop-color:rgb(17,56,127);stop-opacity: 1"/>
</linearGradient>
<path style="stroke: none; stroke-width: 1; stroke-dasharray: none; stroke-linecap: butt; stroke-dashoffset: 0; stroke-linejoin: miter; stroke-miterlimit: 4; fill: url(#SVGID_未命名的渐变_12-5_5); fill-rule: nonzero; opacity: 1;"  transform=" translate(-281.57, -479.79)" d="M 212.65 502.9 C 242.05 475.9 248.55 441.9 246.85000000000002 403.9 C 257.84411080223356 405.9276969111305 268.4015633556584 409.8529036297116 278.04999999999995 415.5 C 280.35 416.8 281.15000000000003 421.2 281.65000000000003 424.4 C 282.45000000000005 430.29999999999995 282.55 436.29999999999995 284.55 443 C 288.45 437.3 292.25 431.6 296.45 425.6 C 303.05 429.5 296.65 433.6 297.55 438.20000000000005 C 300.25 436.40000000000003 302.75 434.6 305.85 432.50000000000006 C 318 440.7 327 451.6 334 464 C 335.1 466 334.1 470 332.6 472.2 C 325.70000000000005 482 318.3 491.5 310.3 502.09999999999997 C 321.7 496.59999999999997 332.5 491.4 344 485.9 C 349 497.7 350.1 509.79999999999995 350.5 523.5 C 337.5 528.4 324.8 534 311.6 538 C 291.8 544.1 271.6 549.1 251.50000000000003 554.4 C 241.50000000000003 557 240.70000000000002 556.1999999999999 236.00000000000003 546.9 C 230.00000000000003 535.1 223.50000000000003 523.5 217.20000000000002 511.7 C 215.65 508.9 214.15 505.9 212.65 502.9 Z" stroke-linecap="round" />
</g>
<g transform="matrix(0.24 0 0 0.24 311.25 226.73)" id="图层_1-2"  >
<linearGradient id="SVGID_未命名的渐变_12-6_6" gradientUnits="userSpaceOnUse" gradientTransform="matrix(1 0 0 -1 0 744.48)"  x1="258.64" y1="184.66" x2="389.33" y2="317.09">
<stop offset="0%" style="stop-color:rgb(28,138,200);stop-opacity: 1"/>
<stop offset="100%" style="stop-color:rgb(17,56,127);stop-opacity: 1"/>
</linearGradient>
<path style="stroke: none; stroke-width: 1; stroke-dasharray: none; stroke-linecap: butt; stroke-dashoffset: 0; stroke-linejoin: miter; stroke-miterlimit: 4; fill: url(#SVGID_未命名的渐变_12-6_6); fill-rule: nonzero; opacity: 1;"  transform=" translate(-359.38, -457.62)" d="M 357.75 446.2 C 364.65 445.2 370.25 449.09999999999997 371.45 455.59999999999997 C 371.94263678395214 458.6635272351109 371.19710426295063 461.79722790815447 369.37765658672515 464.310691708301 C 367.5582089104997 466.8241555084475 364.81413376928134 468.51114995640876 361.75 468.99999999999994 C 355.05 470.19999999999993 348.15 465.49999999999994 347.25 459.09999999999997 C 346.45 453 351.25 447.1 357.75 446.2 Z" stroke-linecap="round" />
</g>
<g transform="matrix(0.24 0 0 0.24 306.56 217.58)" id="图层_1-2"  >
<linearGradient id="SVGID_未命名的渐变_12-7_7" gradientUnits="userSpaceOnUse" gradientTransform="matrix(1 0 0 -1 0 744.48)"  x1="224.56" y1="218.29" x2="355.25" y2="350.72">
<stop offset="0%" style="stop-color:rgb(28,138,200);stop-opacity: 1"/>
<stop offset="100%" style="stop-color:rgb(17,56,127);stop-opacity: 1"/>
</linearGradient>
<path style="stroke: none; stroke-width: 1; stroke-dasharray: none; stroke-linecap: butt; stroke-dashoffset: 0; stroke-linejoin: miter; stroke-miterlimit: 4; fill: url(#SVGID_未命名的渐变_12-7_7); fill-rule: nonzero; opacity: 1;"  transform=" translate(-339.85, -419.5)" d="M 352.65 410 C 344.65 417.5 336.75 425 328.75 432.5 C 328.15 432.3 327.65 432.1 327.05 431.9 C 327.75 423.9 328.45 415.9 329.25 406.5 C 337.35 407 344.65 407.4 352.05 407.9 Z" stroke-linecap="round" />
</g>
<g transform="matrix(0.24 0 0 0.24 304.28 206.28)" id="图层_1-2"  >
<linearGradient id="SVGID_未命名的渐变_12-8_8" gradientUnits="userSpaceOnUse" gradientTransform="matrix(1 0 0 -1 0 744.48)"  x1="202.73" y1="239.83" x2="333.42" y2="372.26">
<stop offset="0%" style="stop-color:rgb(28,138,200);stop-opacity: 1"/>
<stop offset="100%" style="stop-color:rgb(17,56,127);stop-opacity: 1"/>
</linearGradient>
<path style="stroke: none; stroke-width: 1; stroke-dasharray: none; stroke-linecap: butt; stroke-dashoffset: 0; stroke-linejoin: miter; stroke-miterlimit: 4; fill: url(#SVGID_未命名的渐变_12-8_8); fill-rule: nonzero; opacity: 1;"  transform=" translate(-330.35, -372.4)" d="M 341.35 368.4 C 340.55 372.9 339.95000000000005 376.79999999999995 339.15000000000003 381.29999999999995 C 334.45000000000005 381.79999999999995 330.35 382.29999999999995 325.35 382.79999999999995 C 323.55 379.4 321.55 375.79999999999995 319.35 371.59999999999997 C 322.75 368.29999999999995 325.95000000000005 365.29999999999995 329.45000000000005 361.99999999999994 Z" stroke-linecap="round" />
</g>
<g transform="matrix(0.24 0 0 0.24 292.76 208.59)" id="图层_1-2"  >
<linearGradient id="SVGID_未命名的渐变_12-9_9" gradientUnits="userSpaceOnUse" gradientTransform="matrix(1 0 0 -1 0 744.48)"  x1="181.9" y1="260.39" x2="312.59" y2="392.82">
<stop offset="0%" style="stop-color:rgb(28,138,200);stop-opacity: 1"/>
<stop offset="100%" style="stop-color:rgb(17,56,127);stop-opacity: 1"/>
</linearGradient>
<path style="stroke: none; stroke-width: 1; stroke-dasharray: none; stroke-linecap: butt; stroke-dashoffset: 0; stroke-linejoin: miter; stroke-miterlimit: 4; fill: url(#SVGID_未命名的渐变_12-9_9); fill-rule: nonzero; opacity: 1;"  transform=" translate(-282.35, -382.05)" d="M 270 378.3 C 276 375.40000000000003 280.6 373.2 286.5 370.40000000000003 C 289.3 375.90000000000003 291.8 380.8 294.7 386.40000000000003 C 289.09999999999997 388.90000000000003 284.5 391.1 278.7 393.70000000000005 C 275.75 388.6 273.15 384.1 270 378.3 Z" stroke-linecap="round" />
</g>
<g transform="matrix(0.24 0 0 0.24 256.7 237.66)" id="图层_1-2"  >
<linearGradient id="SVGID_未命名的渐变_12-10_10" gradientUnits="userSpaceOnUse" gradientTransform="matrix(1 0 0 -1 0 744.48)"  x1="132.1" y1="279.11" x2="132.1" y2="182.52">
<stop offset="0%" style="stop-color:rgb(28,138,200);stop-opacity: 1"/>
<stop offset="100%" style="stop-color:rgb(17,56,127);stop-opacity: 1"/>
</linearGradient>
<path style="stroke: none; stroke-width: 1; stroke-dasharray: none; stroke-linecap: butt; stroke-dashoffset: 0; stroke-linejoin: miter; stroke-miterlimit: 4; fill: url(#SVGID_未命名的渐变_12-10_10); fill-rule: nonzero; opacity: 1;"  transform=" translate(-132.1, -503.16)" d="M 234.85 563.1 L 205.75 497.90000000000003 C 138.65 506.8 74.25 492.00000000000006 29.349999999999994 441.40000000000003 C 29.949999999999996 442.90000000000003 30.549999999999994 444.3 31.049999999999994 445.8 C 51.05 501.1 90.35 538.2 143.54999999999998 553.6 L 143.54999999999998 553.6 C 181.34999999999997 567.4 213.54999999999998 564.7 213.54999999999998 564.7 C 220.45 564.7 234.85 563.1 234.85 563.1 Z" stroke-linecap="round" />
</g>
<g transform="matrix(0.24 0 0 0.24 250.07 222.05)" id="图层_1-2"  >
<linearGradient id="SVGID_未命名的渐变_12-11_11" gradientUnits="userSpaceOnUse" gradientTransform="matrix(1 0 0 -1 0 744.48)"  x1="36.73" y1="364.06" x2="145.6" y2="254.04">
<stop offset="0%" style="stop-color:rgb(28,138,200);stop-opacity: 1"/>
<stop offset="100%" style="stop-color:rgb(17,56,127);stop-opacity: 1"/>
</linearGradient>
<path style="stroke: none; stroke-width: 1; stroke-dasharray: none; stroke-linecap: butt; stroke-dashoffset: 0; stroke-linejoin: miter; stroke-miterlimit: 4; fill: url(#SVGID_未命名的渐变_12-11_11); fill-rule: nonzero; opacity: 1;"  transform=" translate(-104.45, -438.14)" d="M 1.55 380.2 C 26.45 380 58.449999999999996 379.9 82.95 379.7 C 108.15 440.4 139.45 479.9 207.35000000000002 492.6 C 205.75000000000003 492.8 204.15000000000003 493.1 202.55 493.3 C 142.85000000000002 503.7 89.95000000000002 489.2 49.650000000000006 452.2 L 49.650000000000006 452.2 C 18.45 427.3 8.45 400 8.45 400 Z" stroke-linecap="round" />
</g>
</svg>
